Coordinates
version=1
nRows=29
nColumns=22
inDegrees=yes

Units are S.I. units (second, meters, Newtons, ...)
If the header above contains a line with 'inDegrees', this indicates whether rotational values are in degrees (yes) or radians (no).

endheader
time	pelvis_tilt	pelvis_list	pelvis_rotation	pelvis_tx	pelvis_ty	pelvis_tz	hip_flexion_r	hip_adduction_r	hip_rotation_r	knee_angle_r	ankle_angle_r	subtalar_angle_r	hip_flexion_l	hip_adduction_l	hip_rotation_l	knee_angle_l	ankle_angle_l	subtalar_angle_l	lumbar_extension	lumbar_bending	lumbar_rotation
      1.60000000	      2.86505686	     -3.07249223	      2.31919100	      0.98999270	      0.93510297	      0.02709356	      5.09245289	      2.65860844	    -11.13833514	    -18.70505737	     10.29173960	     -3.07410197	      8.70305964	     -8.53626255	     -6.34390800	    -26.26610740	     12.54385783	     -0.55087234	    -10.61266021	      1.17318822	     -5.65778692
      1.61000000	      2.77728558	     -3.25970535	      2.34693071	      0.98879809	      0.93456549	      0.02853160	      5.31254138	      2.95454844	    -11.18477452	    -18.75981326	     10.28716692	     -3.29000846	      9.29747791	     -8.84438199	     -6.07602619	    -26.95407330	     12.49864085	     -0.45327232	    -10.68917216	      1.40465786	     -5.49509185
      1.62000000	      2.72563180	     -3.47909561	      2.38947437	      0.98750197	      0.93406140	      0.02996671	      5.47734871	      3.29027959	    -11.22259655	    -18.76926929	     10.23335463	     -3.43961005	      9.89288706	     -9.18746619	     -5.77757536	    -27.68937534	     12.47112975	     -0.38625723	    -10.82822352	      1.68353924	     -5.34836975
      1.63000000	      2.64968657	     -3.70758834	      2.44098238	      0.98609790	      0.93349683	      0.03140486	      5.67269561	      3.62899305	    -11.30135813	    -18.77363704	     10.19279596	     -3.59346052	     10.55391163	     -9.53602062	     -5.45065732	    -28.46886038	     12.40308395	     -0.31417541	    -10.95686867	      1.97354929	     -5.16933079
      1.64000000	      2.56536833	     -3.94521614	      2.50111169	      0.98458769	      0.93290316	      0.03284580	      5.87812970	      3.97331245	    -11.40641864	    -18.76705347	     10.14704008	     -3.74416836	     11.26023374	     -9.89058298	     -5.09816181	    -29.28480752	     12.30402667	     -0.24382902	    -11.09263842	      2.27476440	     -4.97474945
      1.65000000	      2.48311698	     -4.18462951	      2.56496954	      0.98297761	      0.93230904	      0.03426364	      6.07912726	      4.31486100	    -11.53083699	    -18.74315165	     10.09576950	     -3.88360311	     11.99920290	    -10.24130993	     -4.72738071	    -30.13989923	     12.16507906	     -0.18485383	    -11.24856914	      2.58861428	     -4.77271974
      1.66000000	      2.40539528	     -4.42329068	      2.64297849	      0.98126671	      0.93172386	      0.03567611	      6.27338090	      4.65416408	    -11.67284096	    -18.70275476	     10.04008711	     -4.01216513	     12.77280069	    -10.58947849	     -4.34352631	    -31.03237707	     11.97455561	     -0.14140524	    -11.42753696	      2.90186408	     -4.57129661
      1.67000000	      2.32130282	     -4.65119347	      2.72823656	      0.97945515	      0.93113371	      0.03706438	      6.48078398	      4.97565458	    -11.84051028	    -18.66240832	      9.98232674	     -4.14169373	     13.59154739	    -10.91895892	     -3.93974584	    -31.96415448	     11.72836313	     -0.10572492	    -11.61591607	      3.20867392	     -4.36403695
      1.68000000	      2.23376344	     -4.86410212	      2.82500597	      0.97754033	      0.93055072	      0.03841450	      6.69835611	      5.27464470	    -12.03237189	    -18.62064915	      9.92196537	     -4.27429070	     14.45476397	    -11.22491266	     -3.51881287	    -32.93511072	     11.42015487	     -0.07516912	    -11.81529474	      3.50621205	     -4.15834879
      1.69000000	      2.13681836	     -5.05367737	      2.93130110	      0.97553020	      0.92996778	      0.03974165	      6.94015955	      5.54088203	    -12.25752609	    -18.59475583	      9.87356917	     -4.41802998	     15.36222930	    -11.49886962	     -3.08772240	    -33.93424624	     11.05043824	     -0.03673631	    -12.01815251	      3.77649982	     -3.93297411
      1.70000000	      2.07875341	     -5.22499534	      3.05573667	      0.97344263	      0.92948000	      0.04100934	      7.13686648	      5.79058633	    -12.45397414	    -18.55220818	      9.79813863	     -4.54434516	     16.25871376	    -11.74791030	     -2.64946312	    -34.95638754	     10.59763638	     -0.01276612	    -12.27801066	      4.04267846	     -3.75968128
      1.71000000	      2.00257050	     -5.36528386	      3.18041098	      0.97130962	      0.92898661	      0.04225204	      7.36798370	      5.99717651	    -12.68625114	    -18.53342741	      9.74363292	     -4.68670715	     17.19035471	    -11.95652034	     -2.21078506	    -35.98705278	     10.09938535	      0.04311983	    -12.51813041	      4.27194887	     -3.55169897
      1.72000000	      1.94138100	     -5.47278848	      3.30590592	      0.96914498	      0.92855561	      0.04344839	      7.58922716	      6.16434313	    -12.91254448	    -18.52572655	      9.70393716	     -4.83356456	     18.10849399	    -12.13127097	     -1.80178674	    -37.00749460	      9.54142112	      0.13508710	    -12.77618780	      4.47161111	     -3.34138263
      1.73000000	      1.91470689	     -5.55389519	      3.44221932	      0.96697216	      0.92823251	      0.04460041	      7.76208213	      6.30811579	    -13.11014038	    -18.49550835	      9.62259597	     -4.95930649	     18.98028014	    -12.27240849	     -1.39083907	    -37.99848291	      8.94308335	      0.23202227	    -13.06856919	      4.64764208	     -3.16042472
      1.74000000	      1.88187946	     -5.60173833	      3.56251880	      0.96480017	      0.92792888	      0.04572967	      7.95521893	      6.40852247	    -13.31872597	    -18.49546116	      9.57817237	     -5.09716089	     19.83632675	    -12.38534030	     -1.03091627	    -38.95771350	      8.35184888	      0.41797319	    -13.34312353	      4.78456134	     -2.93803513
      1.75000000	      1.87469190	     -5.62507942	      3.67452443	      0.96264940	      0.92770752	      0.04683729	      8.11427146	      6.48539399	    -13.49814249	    -18.48813771	      9.51420695	     -5.22342038	     20.62841864	    -12.47842494	     -0.70319263	    -39.86722446	      7.77775252	      0.65397965	    -13.63308932	      4.89371625	     -2.72528963
      1.76000000	      1.89264501	     -5.62676750	      3.76669009	      0.96053790	      0.92756098	      0.04794047	      8.23853222	      6.54328041	    -13.64086303	    -18.47415577	      9.43745643	     -5.33164946	     21.34521917	    -12.56190245	     -0.42460724	    -40.72513181	      7.24565381	      0.91802135	    -13.93324158	      4.97540566	     -2.52011895
      1.77000000	      1.91044750	     -5.62013409	      3.82658432	      0.95847304	      0.92742422	      0.04905321	      8.36678774	      6.58920920	    -13.78158915	    -18.47473155	      9.36981880	     -5.44101427	     22.00712406	    -12.65211229	     -0.19550017	    -41.53952993	      6.81097445	      1.27794961	    -14.20835023	      5.03824082	     -2.27553389
      1.78000000	      1.95020885	     -5.60349931	      3.85418289	      0.95647077	      0.92733768	      0.05017930	      8.46642659	      6.62864310	    -13.89094774	    -18.47617104	      9.29783185	     -5.53447456	     22.58043977	    -12.75381147	     -0.03217328	    -42.31502489	      6.47771358	      1.64964731	    -14.48345156	      5.08033626	     -2.01425922
      1.79000000	      1.99300050	     -5.57765704	      3.84341531	      0.95453968	      0.92726100	      0.05132674	      8.56751848	      6.65594731	    -13.99540693	    -18.49770981	      9.23235706	     -5.62566047	     23.07467620	    -12.86681812	      0.06931057	    -43.06063507	      6.28214037	      2.06395467	    -14.73183301	      5.09471620	     -1.72072504
      1.80000000	      2.04730598	     -5.55516220	      3.79820622	      0.95265187	      0.92721011	      0.05247517	      8.65886229	      6.69116017	    -14.04340936	    -18.52825037	      9.15307852	     -5.70249259	     23.48983146	    -12.99885871	      0.12529587	    -43.80677126	      6.18653212	      2.38618035	    -14.96705741	      5.10423019	     -1.43177765
      1.81000000	      2.12810885	     -5.53017077	      3.71115948	      0.95087259	      0.92720997	      0.05363275	      8.71227788	      6.72753303	    -14.06796842	    -18.55571091	      9.08406935	     -5.74394855	     23.79823105	    -13.16035095	      0.08979825	    -44.57479395	      6.20233333	      2.52251547	    -15.19547595	      5.09926795	     -1.12842562
      1.82000000	      2.16538001	     -5.51938798	      3.58676498	      0.94906626	      0.92712442	      0.05482229	      8.84041592	      6.78387360	    -13.99859582	    -18.62615916	      8.98424735	     -5.81878931	     24.09805469	    -13.33709367	      0.05686117	    -45.39816505	      6.32806817	      2.68314611	    -15.35628112	      5.09132620	     -0.82835758
      1.83000000	      2.21059357	     -5.49432724	      3.42914753	      0.94734144	      0.92705943	      0.05599069	      8.96427899	      6.81994007	    -13.93678488	    -18.71819589	      8.90565354	     -5.89012393	     24.31328310	    -13.51512400	     -0.03553027	    -46.28255719	      6.51491091	      2.74440577	    -15.49242762	      5.05768529	     -0.52346673
      1.84000000	      2.24437383	     -5.46612171	      3.23868632	      0.94565425	      0.92697820	      0.05715160	      9.11051478	      6.85420781	    -13.83088018	    -18.83347357	      8.82382205	     -5.97185051	     24.47458181	    -13.69558694	     -0.15473940	    -47.24732292	      6.75396045	      2.71281633	    -15.58782862	      5.01042203	     -0.22508114
      1.85000000	      2.26994342	     -5.42975165	      3.02258465	      0.94399923	      0.92688843	      0.05828372	      9.27506425	      6.87951181	    -13.68948843	    -18.97104963	      8.74474387	     -6.06319351	     24.57700532	    -13.86388099	     -0.28516117	    -48.29386955	      7.02767591	      2.58734090	    -15.64802313	      4.94764907	      0.05642621
      1.86000000	      2.29719902	     -5.38122348	      2.79296774	      0.94238477	      0.92681042	      0.05936180	      9.44329908	      6.88961293	    -13.53257708	    -19.12575787	      8.67094668	     -6.15551043	     24.60805982	    -14.00537231	     -0.40887298	    -49.41600790	      7.31752057	      2.40039521	    -15.68294724	      4.86942756	      0.31211856
      1.87000000	      2.32258580	     -5.32096141	      2.56043994	      0.94080847	      0.92674198	      0.06037154	      9.61723319	      6.88535776	    -13.35466501	    -19.29308028	      8.59956601	     -6.25623986	     24.57436902	    -14.10990867	     -0.50777659	    -50.60773472	      7.59941487	      2.15504974	    -15.68786304	      4.77905542	      0.52986851
      1.88000000	      2.35255540	     -5.25114150	      2.33298792	      0.93927244	      0.92669260	      0.06130329	      9.78531933	      6.86749373	    -13.17364348	    -19.46552838	      8.53199323	     -6.36155869	     24.46975313	    -14.17405977	     -0.57210445	    -51.85647357	      7.86102924	      1.87800335	    -15.67007833	      4.68040316	      0.70349696
